<svg xmlns="http://www.w3.org/2000/svg" xmlns:xlink="http://www.w3.org/1999/xlink" viewBox="0 0 2255.78 1185.77"><defs><style>.cls-1,.cls-4{fill:none;}.cls-2{clip-path:url(#clip-path);}.cls-3{fill:#ffe9cc;}.cls-3,.cls-4,.cls-5{fill-rule:evenodd;}.cls-4{stroke:#ffd6a4;stroke-miterlimit:10;stroke-width:5px;}.cls-5{fill:#fff;}</style><clipPath id="clip-path" transform="translate(155.64 51.64)"><rect class="cls-1" width="1921" height="1080"/></clipPath></defs><title>Asset 7</title><g id="Layer_2" data-name="Layer 2"><g id="Layer_1-2" data-name="Layer 1"><g class="cls-2"><path class="cls-3" d="M81.48-51.64c-129,0-234.52,114-234.52,253.28h0c0,139.3,105.54,253.27,234.52,253.27h0c25.89,0,47.07,22.88,47.07,50.83h0c0,28-21.18,50.83-47.07,50.83H-41.23c-62.92,0-114.41,55.6-114.41,123.56h0c0,68,51.49,123.56,114.41,123.56,54.42,0,98.94,48.08,98.94,106.85h0c0,107.24,81.24,195,180.53,195H1832.43c129,0,234.52-114,234.52-253.27h0C2067,712.94,1961.41,599,1832.43,599h-22.68c-25.88,0-47.06-22.87-47.06-50.83h0c0-28,21.18-50.83,47.06-50.83h152.7c62.92,0,114.41-55.6,114.41-123.56h0c0-67.87-51.37-123.43-114.19-123.55H1839.81c-54.42,0-98.94-48.09-98.94-106.86h0c0-107.23-81.24-195-180.54-195Z" transform="translate(155.64 51.64)"/><path class="cls-4" d="M102.26-25.51c-129,0-234.51,114-234.51,253.27h0C-132.25,367.06-26.72,481,102.26,481h0c25.89,0,47.07,22.87,47.07,50.82h0c0,28-21.18,50.83-47.07,50.83H-20.45c-62.92,0-114.41,55.6-114.41,123.56h0c0,68,51.49,123.56,114.41,123.56,54.42,0,98.94,48.09,98.94,106.86h0c0,107.23,81.24,195,180.53,195H1853.21c129,0,234.52-114,234.52-253.28h0c0-139.3-105.53-253.27-234.52-253.27h-22.68c-25.88,0-47.06-22.88-47.06-50.83h0c0-28,21.18-50.83,47.06-50.83h152.7c62.92,0,114.41-55.61,114.41-123.56h0c0-67.88-51.37-123.43-114.19-123.56H1860.59c-54.42,0-98.94-48.08-98.94-106.86h0c0-107.23-81.24-195-180.53-195Z" transform="translate(155.64 51.64)"/></g><path class="cls-5" d="M91.51,61.42a2.79,2.79,0,1,1,5.58,0V74a2.79,2.79,0,0,1-5.58,0V61.42Zm-19,10.2a2.79,2.79,0,0,1,4-4l8.88,8.88a2.79,2.79,0,0,1-4,4l-8.88-8.88ZM66.22,92.29a2.8,2.8,0,0,1,0-5.59H78.78a2.8,2.8,0,1,1,0,5.59Zm10.2,19a2.79,2.79,0,1,1-4-3.94l8.88-8.89a2.79,2.79,0,0,1,4,4l-8.88,8.88Zm20.67,6.25a2.79,2.79,0,1,1-5.58,0V105a2.79,2.79,0,1,1,5.58,0v12.56Zm19-10.19a2.79,2.79,0,1,1-3.95,3.94l-8.89-8.88a2.79,2.79,0,0,1,3.95-4l8.89,8.89Zm6.24-20.68a2.8,2.8,0,1,1,0,5.59H109.81a2.8,2.8,0,0,1,0-5.59Zm-10.19-19a2.79,2.79,0,0,1,3.95,4l-8.89,8.88a2.79,2.79,0,1,1-3.95-4Z" transform="translate(155.64 51.64)"/><path class="cls-5" d="M177.85,974.32a2.79,2.79,0,0,1,5.58,0v12.56a2.79,2.79,0,0,1-5.58,0V974.32Zm-19,10.2a2.79,2.79,0,0,1,3.95-3.95l8.89,8.88a2.79,2.79,0,0,1-4,3.95l-8.89-8.88Zm-6.25,20.67a2.79,2.79,0,1,1,0-5.58h12.57a2.79,2.79,0,0,1,0,5.58Zm10.2,19a2.79,2.79,0,0,1-3.95-4l8.89-8.89a2.79,2.79,0,1,1,4,4l-8.89,8.89Zm20.67,6.25a2.79,2.79,0,0,1-5.58,0v-12.57a2.79,2.79,0,0,1,5.58,0v12.57Zm19-10.2a2.79,2.79,0,0,1-3.95,4l-8.88-8.89a2.79,2.79,0,0,1,4-4l8.88,8.89Zm6.25-20.67a2.79,2.79,0,0,1,0,5.58H196.16a2.79,2.79,0,1,1,0-5.58Zm-10.2-19a2.79,2.79,0,0,1,3.95,3.95l-8.88,8.88a2.79,2.79,0,0,1-4-3.95Z" transform="translate(155.64 51.64)"/><path class="cls-5" d="M1719.13,281.44a2.65,2.65,0,1,1,5.29,0V294a2.65,2.65,0,1,1-5.29,0V281.44Zm-18,10.2a2.91,2.91,0,0,1,0-3.95,2.55,2.55,0,0,1,3.74,0l8.41,8.89a2.89,2.89,0,0,1,0,3.95,2.55,2.55,0,0,1-3.74,0l-8.41-8.89Zm-5.92,20.68a2.8,2.8,0,0,1,0-5.59h11.9a2.8,2.8,0,0,1,0,5.59Zm9.66,19a2.55,2.55,0,0,1-3.74,0,2.91,2.91,0,0,1,0-4l8.41-8.88a2.55,2.55,0,0,1,3.74,0,2.89,2.89,0,0,1,0,4l-8.41,8.88Zm19.58,6.25a2.65,2.65,0,1,1-5.29,0V325a2.65,2.65,0,1,1,5.29,0V337.6Zm18-10.2a2.91,2.91,0,0,1,0,4,2.55,2.55,0,0,1-3.74,0l-8.41-8.88a2.91,2.91,0,0,1,0-4,2.55,2.55,0,0,1,3.74,0l8.41,8.88Zm5.91-20.67a2.8,2.8,0,0,1,0,5.59h-11.89a2.8,2.8,0,0,1,0-5.59Zm-9.65-19a2.55,2.55,0,0,1,3.74,0,2.91,2.91,0,0,1,0,3.95l-8.41,8.89a2.55,2.55,0,0,1-3.74,0,2.91,2.91,0,0,1,0-3.95Z" transform="translate(155.64 51.64)"/><path class="cls-5" d="M87.46,652.14v7.24H94.7a5.52,5.52,0,0,1,5.5,5.5h0a5.52,5.52,0,0,1-5.5,5.5H87.46v7.24a5.51,5.51,0,0,1-5.49,5.5h0a5.52,5.52,0,0,1-5.5-5.5v-7.24H69.23a5.52,5.52,0,0,1-5.5-5.5h0a5.52,5.52,0,0,1,5.5-5.5h7.24v-7.24a5.51,5.51,0,0,1,5.5-5.49h0A5.51,5.51,0,0,1,87.46,652.14Z" transform="translate(155.64 51.64)"/><path class="cls-5" d="M116.58,733.74v4.53h4.53a3.44,3.44,0,0,1,3.44,3.44h0a3.44,3.44,0,0,1-3.44,3.43h-4.53v4.53a3.45,3.45,0,0,1-3.44,3.45h0a3.45,3.45,0,0,1-3.43-3.45v-4.53h-4.54a3.44,3.44,0,0,1-3.44-3.43h0a3.45,3.45,0,0,1,3.44-3.44h4.54v-4.53a3.44,3.44,0,0,1,3.43-3.44h0A3.45,3.45,0,0,1,116.58,733.74Z" transform="translate(155.64 51.64)"/><path class="cls-5" d="M291.58,572.74v4.53h4.53a3.44,3.44,0,0,1,3.44,3.44h0a3.44,3.44,0,0,1-3.44,3.43h-4.53v4.53a3.45,3.45,0,0,1-3.44,3.45h0a3.45,3.45,0,0,1-3.43-3.45v-4.53h-4.54a3.44,3.44,0,0,1-3.44-3.43h0a3.45,3.45,0,0,1,3.44-3.44h4.54v-4.53a3.44,3.44,0,0,1,3.43-3.44h0A3.45,3.45,0,0,1,291.58,572.74Z" transform="translate(155.64 51.64)"/><path class="cls-5" d="M170.63,83.05v4.53h4.53A3.45,3.45,0,0,1,178.6,91h0a3.45,3.45,0,0,1-3.44,3.44h-4.53V99a3.45,3.45,0,0,1-3.44,3.44h0A3.45,3.45,0,0,1,163.75,99V94.46h-4.53A3.45,3.45,0,0,1,155.78,91h0a3.45,3.45,0,0,1,3.44-3.44h4.53V83.05a3.45,3.45,0,0,1,3.44-3.44h0A3.45,3.45,0,0,1,170.63,83.05Z" transform="translate(155.64 51.64)"/><path class="cls-5" d="M153.63,123.05v4.53h4.53A3.45,3.45,0,0,1,161.6,131h0a3.45,3.45,0,0,1-3.44,3.44h-4.53V139a3.45,3.45,0,0,1-3.44,3.44h0a3.45,3.45,0,0,1-3.44-3.44v-4.53h-4.53a3.45,3.45,0,0,1-3.44-3.44h0a3.45,3.45,0,0,1,3.44-3.44h4.53v-4.53a3.45,3.45,0,0,1,3.44-3.44h0A3.45,3.45,0,0,1,153.63,123.05Z" transform="translate(155.64 51.64)"/><path class="cls-5" d="M1783.08,278.94V284h5.1a3.9,3.9,0,0,1,3.88,3.88h0a3.89,3.89,0,0,1-3.88,3.87h-5.1v5.11a3.89,3.89,0,0,1-3.88,3.88h0a3.89,3.89,0,0,1-3.87-3.88v-5.11h-5.11a3.88,3.88,0,0,1-3.87-3.87h0a3.89,3.89,0,0,1,3.87-3.88h5.11v-5.1a3.89,3.89,0,0,1,3.87-3.88h0A3.89,3.89,0,0,1,1783.08,278.94Z" transform="translate(155.64 51.64)"/><path class="cls-5" d="M1871,949v5.1h5.1A3.88,3.88,0,0,1,1880,958h0a3.88,3.88,0,0,1-3.88,3.87H1871V967a3.88,3.88,0,0,1-3.87,3.87h0a3.88,3.88,0,0,1-3.88-3.87v-5.11h-5.11a3.88,3.88,0,0,1-3.87-3.87h0a3.88,3.88,0,0,1,3.87-3.88h5.11V949a3.88,3.88,0,0,1,3.88-3.88h0A3.88,3.88,0,0,1,1871,949Z" transform="translate(155.64 51.64)"/><path class="cls-5" d="M1837.28,988.25v7.07h7.07a5.38,5.38,0,0,1,5.37,5.37h0a5.39,5.39,0,0,1-5.37,5.38h-7.07v7.07a5.39,5.39,0,0,1-5.38,5.38h0a5.39,5.39,0,0,1-5.37-5.38v-7.07h-7.08a5.39,5.39,0,0,1-5.37-5.38h0a5.38,5.38,0,0,1,5.37-5.37h7.08v-7.07a5.39,5.39,0,0,1,5.37-5.38h0A5.39,5.39,0,0,1,1837.28,988.25Z" transform="translate(155.64 51.64)"/><path class="cls-5" d="M1835.6,878.51v5.11h5.1a3.89,3.89,0,0,1,3.88,3.87h0a3.9,3.9,0,0,1-3.88,3.88h-5.1v5.1a3.9,3.9,0,0,1-3.88,3.88h0a3.9,3.9,0,0,1-3.88-3.88v-5.1h-5.1a3.89,3.89,0,0,1-3.87-3.88h0a3.88,3.88,0,0,1,3.87-3.87h5.1v-5.11a3.89,3.89,0,0,1,3.88-3.87h0A3.89,3.89,0,0,1,1835.6,878.51Z" transform="translate(155.64 51.64)"/></g></g></svg>