<svg xmlns="http://www.w3.org/2000/svg" viewBox="0 0 29.66 29.66"><defs><style>.cls-1{fill:#f7931e;}</style></defs><title>Asset 5</title><g id="Layer_2" data-name="Layer 2"><g id="Layer_1-2" data-name="Layer 1"><path class="cls-1" d="M22.74,2a4.93,4.93,0,0,1,4.92,4.92V22.74a4.93,4.93,0,0,1-4.92,4.92H6.92A4.93,4.93,0,0,1,2,22.74V6.92A4.93,4.93,0,0,1,6.92,2H22.74m0-2H6.92A6.94,6.94,0,0,0,0,6.92V22.74a6.94,6.94,0,0,0,6.92,6.92H22.74a6.94,6.94,0,0,0,6.92-6.92V6.92A6.94,6.94,0,0,0,22.74,0Z"/></g></g></svg>