<svg xmlns="http://www.w3.org/2000/svg" viewBox="0 0 1056 181.87"><defs><style>.cls-1{fill:#fff;}.cls-1,.cls-2{fill-rule:evenodd;}.cls-2{fill:#ffd6a4;}</style></defs><title>Asset 2</title><g id="Layer_2" data-name="Layer 2"><g id="Layer_1-2" data-name="Layer 1"><path class="cls-1" d="M32,0H1035.08A21,21,0,0,1,1056,20.92V168.48a2.34,2.34,0,0,1-4,1.65l-35.64-35.65H32a21,21,0,0,1-20.92-20.92V20.92A21,21,0,0,1,32,0Z"/><path class="cls-2" d="M22.74,11.05h1003.1a19.17,19.17,0,0,1,19.1,19.1V177.71a.56.56,0,0,1-.07.3.52.52,0,0,1-.25.18.45.45,0,0,1-.3,0h0a.49.49,0,0,1-.23-.13l-35.64-35.66a1.86,1.86,0,0,0-1.29-.53H22.74a19.15,19.15,0,0,1-19.1-19.1V30.15a19.17,19.17,0,0,1,19.1-19.1Zm1003.1-3.63H22.74A22.81,22.81,0,0,0,0,30.15V122.8a22.79,22.79,0,0,0,22.74,22.74h983.64l35.11,35.11a4.22,4.22,0,0,0,2,1.12l.09,0a4.23,4.23,0,0,0,2.4-.25,4.13,4.13,0,0,0,1.88-1.53,4.21,4.21,0,0,0,.69-2.31V30.15a22.81,22.81,0,0,0-22.74-22.73Z"/></g></g></svg>